<svg xmlns="http://www.w3.org/2000/svg"><g clip-path="url(#a)"><path d="M61.219 22.587a9.633 9.633 0 0 1-4.971-1.25 8.836 8.836 0 0 1-3.331-3.466 11.489 11.489 0 0 1 0-10.25 8.836 8.836 0 0 1 3.33-3.466 10.465 10.465 0 0 1 9.93 0 8.713 8.713 0 0 1 3.331 3.466 11.595 11.595 0 0 1 0 10.25 8.712 8.712 0 0 1-3.33 3.466 9.648 9.648 0 0 1-4.96 1.25Zm0-3.125c1.807 0 3.247-.6 4.32-1.796 1.073-1.197 1.61-2.838 1.612-4.922 0-2.083-.537-3.724-1.612-4.92-1.075-1.198-2.515-1.796-4.32-1.794-1.806 0-3.25.598-4.333 1.793-1.083 1.195-1.625 2.836-1.628 4.921 0 2.086.543 3.727 1.628 4.922 1.085 1.195 2.53 1.793 4.333 1.796ZM80.88 22.587a5.868 5.868 0 0 1-2.657-.57 4.795 4.795 0 0 1-1.832-1.605l-.379 1.838h-3.099V2.687h3.469v8.02A6.222 6.222 0 0 1 78.1 9.129a5.109 5.109 0 0 1 2.778-.68 6.29 6.29 0 0 1 3.386.919 6.633 6.633 0 0 1 2.358 2.528c.586 1.125.88 2.38.855 3.65a7.474 7.474 0 0 1-.868 3.63 6.557 6.557 0 0 1-2.357 2.501 6.364 6.364 0 0 1-3.374.91Zm-.733-3.046a3.652 3.652 0 0 0 2.747-1.112 3.955 3.955 0 0 0 1.084-2.883 4.05 4.05 0 0 0-1.084-2.909 3.883 3.883 0 0 0-5.496-.015 4.447 4.447 0 0 0 0 5.792 3.615 3.615 0 0 0 2.752 1.127h-.004ZM96.027 22.587a6.874 6.874 0 0 1-3.508-.897 6.548 6.548 0 0 1-2.464-2.489 7.86 7.86 0 0 1 0-7.354 6.673 6.673 0 0 1 2.48-2.488 7.252 7.252 0 0 1 6.988 0 6.569 6.569 0 0 1 2.464 2.488 7.901 7.901 0 0 1 0 7.354 6.512 6.512 0 0 1-2.476 2.489 6.908 6.908 0 0 1-3.484.897Zm0-3.018a3.201 3.201 0 0 0 2.357-1.017c.67-.68 1.004-1.692 1.002-3.034-.002-1.342-.336-2.352-1.002-3.03a3.228 3.228 0 0 0-2.35-1.02 3.217 3.217 0 0 0-2.352 1.02c-.657.68-.986 1.69-.986 3.03 0 1.34.329 2.351.986 3.034a3.173 3.173 0 0 0 2.345 1.017ZM105.035 22.263V2.687h3.468v19.576h-3.468Z" fill="#F4F3EC"/><path d="M32.008 23.988c-5.386.288-11.939-4.308-16.748-7.456-17.431 15.166-21.654-15.349-.406-4.627C19.571 8.378 24.624 3 30.328.815c19.545-5.993 19.637 22.998 1.68 23.173ZM18.41 13.968C42.655 33.454 49.12-.812 31.641 4.434c-4.555 1.723-9.315 6.577-13.23 9.534ZM5.666 16.863c2.058.466 3.94-.812 5.854-2.255-1.9-.732-5.017-1.756-6.513-.803-1.28.978-.959 2.688.66 3.058Z" fill="#2FE4AB"/><path d="M6.048 16.93v3.91c2.394.074 5.496-1.08 9.212-4.308a19.317 19.317 0 0 0-3.74-1.924c-1.796 1.351-3.56 2.559-5.472 2.323Z" fill="url(#b)"/><path d="m25.474 8.197-3.228-2.36c-2.574 2.066-5.026 4.29-7.392 6.068a24.85 24.85 0 0 1 3.557 2.062c2.156-1.63 4.568-3.83 7.063-5.77Z" fill="url(#c)"/></g><defs><linearGradient id="b" x1="8.939" y1="20.354" x2="11.618" y2="14.738" gradientUnits="userSpaceOnUse"><stop stop-color="#2FE4AB" stop-opacity="0"/><stop offset="1" stop-color="#0F7C76"/></linearGradient><linearGradient id="c" x1="22.032" y1="6.99" x2="18.088" y2="13.403" gradientUnits="userSpaceOnUse"><stop stop-color="#2FE4AB" stop-opacity="0"/><stop offset="1" stop-color="#0F7C76"/></linearGradient><clipPath id="a"><path fill="#fff" transform="translate(.5)" d="M0 0h108v24H0z"/></clipPath></defs></svg>
